HIERARCHY
ROOT root
{
	OFFSET	0	13.1	24.9
	CHANNELS 6  Xposition Yposition Zposition Xrotation Yrotation Zrotation
	JOINT spine_1
	{
		OFFSET	0	9.99999	0
		CHANNELS 3  Xrotation Yrotation Zrotation
		JOINT spine_2
		{
			OFFSET	0	112	-10
			CHANNELS 3  Xrotation Yrotation Zrotation
			JOINT spine_3
			{
				OFFSET	0	206.5	19.3
				CHANNELS 3  Xrotation Yrotation Zrotation
				JOINT spine_4
				{
					OFFSET	0	110.4	14.6
					CHANNELS 3  Xrotation Yrotation Zrotation
					JOINT neck_1
					{
						OFFSET	0	71.8	-50.3
						CHANNELS 3  Xrotation Yrotation Zrotation
						JOINT neck_2
						{
							OFFSET	0	86.2	-25.8
							CHANNELS 3  Xrotation Yrotation Zrotation
							JOINT head_ee
							{
								OFFSET	0	179.8	-8.7
								CHANNELS 3  Xrotation Yrotation Zrotation
								End Site
								{
									OFFSET	1	0	0
								}
							}
						}
					}
					JOINT left_clavicle
					{
						OFFSET	-43.2	22.4	-70.8
						CHANNELS 3  Xrotation Yrotation Zrotation
						JOINT left_shoulder
						{
							OFFSET	-93.9	-5.79999	48.7
							CHANNELS 3  Xrotation Yrotation Zrotation
							JOINT left_elbow
							{
								OFFSET	-291.4	-30.8	15.2
								CHANNELS 3  Xrotation Yrotation Zrotation
								JOINT left_lowarm_twist
								{
									OFFSET	-110.7	-3.89999	13.6
									CHANNELS 3  Xrotation Yrotation Zrotation
									JOINT left_hand
									{
										OFFSET	-110.7	-3.89999	13.6
										CHANNELS 3  Xrotation Yrotation Zrotation
										JOINT left_ee
										{
											OFFSET	-80.8	-5.10001	12.1
											CHANNELS 3  Xrotation Yrotation Zrotation
											End Site
											{
												OFFSET	1	0	0
											}
										}
									}
								}
							}
						}
					}
					JOINT right_clavicle
					{
						OFFSET	43.2	22.4	-70.8
						CHANNELS 3  Xrotation Yrotation Zrotation
						JOINT right_shoulder
						{
							OFFSET	93.9	-5.79999	48.7
							CHANNELS 3  Xrotation Yrotation Zrotation
							JOINT right_elbow
							{
								OFFSET	291.4	-30.8	15.2
								CHANNELS 3  Xrotation Yrotation Zrotation
								JOINT right_lowarm_twist
								{
									OFFSET	110.7	-3.89999	13.6
									CHANNELS 3  Xrotation Yrotation Zrotation
									JOINT right_hand
									{
										OFFSET	110.7	-3.89999	13.6
										CHANNELS 3  Xrotation Yrotation Zrotation
										JOINT right_ee
										{
											OFFSET	80.8	-5.10001	12.1
											CHANNELS 3  Xrotation Yrotation Zrotation
											End Site
											{
												OFFSET	1	0	0
											}
										}
									}
								}
							}
						}
					}
				}
			}
		}
	}
	JOINT left_hip
	{
		OFFSET	-82.8	-127.5	0.300001
		CHANNELS 3  Xrotation Yrotation Zrotation
		JOINT left_knee
		{
			OFFSET	-28.2	-396.7	2.2
			CHANNELS 3  Xrotation Yrotation Zrotation
			JOINT left_ankle
			{
				OFFSET	-11.7	-411.3	35.4
				CHANNELS 3  Xrotation Yrotation Zrotation
				JOINT left_toes
				{
					OFFSET	0	-60	-88.6
					CHANNELS 3  Xrotation Yrotation Zrotation
					JOINT left_foot_ee
					{
						OFFSET	-22.5	-16.5	-42.2
						CHANNELS 3  Xrotation Yrotation Zrotation
						End Site
						{
							OFFSET	1	0	0
						}
					}
				}
			}
		}
	}
	JOINT right_hip
	{
		OFFSET	82.8	-127.5	0.300001
		CHANNELS 3  Xrotation Yrotation Zrotation
		JOINT right_knee
		{
			OFFSET	28.2	-396.7	2.2
			CHANNELS 3  Xrotation Yrotation Zrotation
			JOINT right_ankle
			{
				OFFSET	11.7	-411.3	35.4
				CHANNELS 3  Xrotation Yrotation Zrotation
				JOINT right_toes
				{
					OFFSET	0	-60	-88.6
					CHANNELS 3  Xrotation Yrotation Zrotation
					JOINT right_foot_ee
					{
						OFFSET	22.5	-16.5	-42.2
						CHANNELS 3  Xrotation Yrotation Zrotation
						End Site
						{
							OFFSET	1	0	0
						}
					}
				}
			}
		}
	}
}
MOTION
Frames: 13
Frame Time: 0.02
658.962 612.24 -1463.31 -146.016 -69.144 -144.752 3.14367 -0.78201 -2.90535 3.14816 -0.595634 -2.94917 3.1774 -0.129691 -3.00587 3.1653 -0.602576 -2.94776 -7.6269 1.46605 3.76804 -7.58702 0.0431902 4.0564 -0.0 0.0 -0.0 11.3871 -21.7113 22.4018 -12.944 -23.0958 53.9374 1.2479 -31.722 0.354568 35.4809 -0.135309 -4.45883 7.10548 -26.9902 35.982 -0.0 0.0 -0.0 8.1684 -1.51713 -15.89 -37.5652 3.14454 -59.8705 0.806153 21.7689 -0.155016 -63.4094 5.70955 -5.1946 2.78358 19.4601 -10.2427 0.0 0.0 0.0 1.33296 -22.6713 -0.728595 -28.7058 0.0914556 4.35849 18.7545 -14.1182 -2.76415 -9.22027 0.0 0.0 -0.0 0.0 -0.0 40.0253 -21.2861 -1.04512 -13.526 -0.31658 -2.0468 15.7592 -11.1776 2.19635 -40.1489 0.0 0.0 0.0 0.0 0.0 
675.07 619.316 -1452.47 -144.412 -69.7165 -143.428 3.13893 -0.769801 -2.84557 3.14324 -0.587248 -2.88874 3.1715 -0.130492 -2.94488 3.15989 -0.593748 -2.88741 -8.57483 0.2894 4.97475 -8.50388 -2.93576 4.97456 -0.0 0.0 -0.0 11.4915 -20.5006 22.7348 -13.5718 -24.6231 54.5637 1.1007 -28.6008 0.280582 36.7659 -0.191823 -4.6131 5.24723 -19.8317 27.1949 -0.0 0.0 -0.0 8.45947 -0.186358 -16.5068 -37.8359 3.22956 -60.87 0.788662 21.3395 -0.14859 -62.4325 5.58673 -5.17045 3.05404 19.6865 -11.9515 0.0 0.0 0.0 3.39779 -21.3943 -1.31263 -33.9755 -0.128617 5.13691 10.232 -19.3133 -1.63337 -2.18638 0.0 0.0 -0.0 0.0 -0.0 39.3672 -21.2694 -0.880107 -15.2843 -0.32199 -2.31651 21.0621 -12.0212 2.87236 -40.1088 0.0 0.0 0.0 0.0 0.0 
698.329 621.915 -1433.78 -144.942 -70.5113 -144.054 3.09322 -0.733115 -2.64823 3.09694 -0.563178 -2.68948 3.12227 -0.13534 -2.74443 3.11221 -0.566916 -2.68869 -7.30296 -1.43832 5.62103 -7.20583 -6.71171 5.31687 -0.0 0.0 -0.0 12.0654 -19.9565 24.0872 -14.1487 -24.4334 56.1204 0.925149 -24.6212 0.201899 38.3721 -0.267309 -4.80409 3.69053 -15.9378 18.2079 -0.0 0.0 -0.0 8.3413 0.715103 -16.2876 -38.4642 3.29592 -62.111 0.818358 22.067 -0.159572 -61.9149 5.52182 -5.15679 3.47328 23.2305 -12.9442 0.0 0.0 0.0 6.68957 -19.2517 -1.95477 -40.7254 -0.513561 6.09952 -5.41769 -22.1975 0.933552 5.48846 -0.0 -0.0 -0.0 0.0 -0.0 38.4078 -21.2332 -0.976296 -17.6027 -0.316471 -2.67215 29.2199 -10.3469 3.81392 -40.1289 0.0 0.0 0.0 0.0 0.0 
716.987 613.013 -1425.08 -142.538 -71.6503 -141.425 3.13207 -0.734945 -2.71528 3.13599 -0.560743 -2.7565 3.16175 -0.12438 -2.81017 3.15118 -0.566463 -2.75533 -7.45921 -4.13614 5.50781 -7.36324 -11.6355 4.63242 -0.0 0.0 -0.0 12.4733 -19.5537 25.0548 -14.3827 -24.2729 56.5197 0.794714 -21.4884 0.1508 41.0913 -0.407238 -5.12243 2.51953 -13.3017 11.3657 -0.0 0.0 -0.0 8.38149 0.779681 -16.3703 -38.4647 3.33558 -62.2518 0.866283 23.2255 -0.178026 -61.0902 5.41864 -5.13383 4.05077 28.2944 -13.9465 0.0 0.0 0.0 10.0379 -14.0224 -2.72341 -45.4569 -0.849914 6.74468 -14.4878 -23.2985 2.56071 6.08934 -0.0 -0.0 -0.0 0.0 -0.0 37.4106 -21.1576 -0.733919 -18.9935 -0.306258 -2.88529 36.2991 -9.48264 4.53415 -40.1189 0.0 0.0 0.0 0.0 0.0 
736.357 618.18 -1415.01 -139.607 -72.2691 -138.415 3.62895 -0.706552 -2.60337 3.63256 -0.53952 -2.64302 3.65578 -0.144324 -2.69363 3.64611 -0.567772 -2.6371 -7.49666 -4.539 5.1445 -7.41326 -12.1235 4.17989 -0.0 0.0 -0.0 11.5669 -14.3198 23.234 -13.5366 -27.4063 59.2039 0.619581 -17.0625 0.0929436 45.8981 -0.691048 -5.66784 -0.236246 8.87211 2.15943 -0.0 0.0 -0.0 8.66712 2.58413 -16.9843 -39.3908 0.88476 -64.3991 0.897145 23.961 -0.190379 -55.1092 4.68154 -4.92308 0.128682 23.6983 9.20991 0.0 0.0 0.0 11.1826 -19.2332 -2.41657 -51.0225 -1.31239 7.46557 -16.1624 -2.47505 2.47201 9.56627 -0.0 -0.0 -0.0 0.0 -0.0 35.0641 -20.9268 -1.57645 -16.2459 -0.321448 -2.46404 41.3116 -14.7463 5.04461 -38.2458 0.0 0.0 0.0 0.0 0.0 
757.944 621.371 -1405.0 -139.241 -72.5184 -138.002 3.72039 -0.673745 -2.49221 3.72369 -0.513846 -2.53 3.74476 -0.139557 -2.57785 3.7359 -0.544798 -2.52352 -8.7388 -5.2632 4.33187 -8.70487 -12.864 3.06506 -0.0 0.0 -0.0 10.838 -8.27882 21.6779 -12.8616 -28.6277 60.9587 0.572327 -15.8289 0.0795649 44.9568 -0.631874 -5.56292 -0.496569 9.60012 0.78996 -0.0 0.0 -0.0 8.45889 5.13703 -16.5663 -39.7305 -0.8285 -66.1683 1.03975 27.2506 -0.252035 -51.8564 4.29087 -4.77646 -1.29528 13.0016 14.3899 0.0 0.0 0.0 18.3606 -16.5046 -1.77263 -62.3643 -2.46063 8.78065 -2.84032 -2.84731 0.426666 12.907 -0.0 -0.0 -0.0 0.0 -0.0 31.8499 -20.3825 -2.49347 -11.6901 -0.302102 -1.76549 41.1022 -13.6989 5.01132 -38.5589 0.0 0.0 0.0 0.0 0.0 
780.678 619.549 -1392.39 -139.139 -73.0532 -137.795 3.77638 -0.637127 -2.43299 3.77955 -0.481067 -2.46858 3.79867 -0.118414 -2.5122 3.79023 -0.513562 -2.46202 -9.17427 -5.7449 3.1422 -9.17751 -12.9384 1.72633 -0.0 0.0 -0.0 9.46535 -5.09757 18.6854 -13.1114 -27.9862 63.6509 0.631904 -17.3816 0.0965922 45.2894 -0.652584 -5.6001 -0.0660307 7.52987 2.70597 -0.0 0.0 -0.0 8.60749 6.44289 -16.8726 -37.6007 -2.85073 -66.9649 0.971006 25.6875 -0.221392 -50.3693 4.11512 -4.70208 -2.48645 5.91297 19.6603 0.0 0.0 0.0 19.4648 -13.9027 -2.51453 -62.074 -2.42805 8.74989 3.99792 -2.68491 -0.589709 15.8341 -0.0 -0.0 -0.0 0.0 -0.0 31.2098 -20.1828 -2.45071 -12.4886 -0.309506 -1.88779 40.7511 -8.74222 4.93335 -37.3841 0.0 0.0 0.0 0.0 0.0 
794.843 625.1 -1379.62 -139.779 -73.6648 -138.587 3.62971 -0.552378 -2.34539 3.63268 -0.402059 -2.37576 3.64796 -0.0472723 -2.40906 3.64012 -0.427037 -2.3714 -10.7037 -6.44573 1.3329 -10.764 -13.0511 -0.395124 -0.0 0.0 -0.0 7.39858 -0.472791 14.3872 -14.8302 -27.5161 65.5639 0.743541 -20.2202 0.132582 45.2568 -0.650546 -5.59646 0.545275 4.53317 5.49349 -0.0 0.0 -0.0 8.73819 8.32934 -17.129 -33.1109 -5.16207 -67.8175 0.879221 23.5348 -0.18316 -48.7847 3.93005 -4.61784 -4.01666 -3.24379 26.1375 0.0 0.0 0.0 21.145 -13.5244 -2.89229 -61.1071 -2.32071 8.64627 12.3807 -2.55215 -1.77323 18.7783 -0.0 -0.0 -0.0 0.0 -0.0 30.3223 -19.907 -2.41499 -13.6669 -0.317319 -2.06841 40.1865 -1.698 4.88165 -35.7172 0.0 0.0 0.0 0.0 0.0 
808.684 624.969 -1364.78 -137.292 -74.1645 -135.519 3.82734 -0.414673 -2.12754 3.82981 -0.278484 -2.1496 3.83895 0.0344539 -2.16728 3.83253 -0.30818 -2.14555 -11.2701 -6.14302 -0.0758823 -11.3307 -11.5699 -1.73605 -0.0 0.0 -0.0 6.79907 4.15571 13.1716 -18.4027 -26.2077 65.2376 0.65783 -18.0493 0.104481 42.113 -0.463707 -5.2403 0.357396 5.76016 4.75026 -0.0 0.0 -0.0 8.73083 16.0819 -16.8363 -23.7 -5.26406 -68.3319 0.669336 18.344 -0.108074 -47.1518 3.74182 -4.52571 -4.18041 -6.34951 25.5356 0.0 0.0 0.0 24.1286 -15.0435 -2.54993 -60.9588 -2.3044 8.63022 9.52959 2.69125 -1.36239 19.2111 -0.0 -0.0 -0.0 0.0 -0.0 27.2591 -20.2377 -3.79428 -13.2786 -0.315154 -2.00886 40.2341 3.21531 4.92735 -36.6071 0.0 0.0 0.0 0.0 0.0 
824.286 627.988 -1356.32 -135.132 -74.0725 -133.325 4.02287 -0.271915 -1.90942 4.02488 -0.149885 -1.92284 4.02873 0.122692 -1.92477 4.02361 -0.182772 -1.92 -11.1487 -5.33013 -1.71468 -11.1763 -8.95091 -3.08379 -0.0 0.0 -0.0 6.78479 4.71451 13.1362 -18.8626 -26.1421 66.0814 0.592147 -16.3483 0.0850576 40.286 -0.36422 -5.02884 -0.178118 7.55073 1.98659 -0.0 0.0 -0.0 8.31494 20.1815 -15.6476 -20.5828 -6.6845 -69.6451 0.630899 17.3556 -0.0962921 -49.4935 4.01255 -4.65615 -4.43675 -6.54104 27.3048 0.0 0.0 0.0 25.8038 -19.7481 -0.732624 -62.5233 -2.47853 8.79743 8.9832 8.35975 -1.28133 20.9406 -0.0 -0.0 -0.0 0.0 -0.0 26.3445 -20.366 -4.25009 -12.3698 -0.308513 -1.86959 39.5744 6.59821 4.92073 -38.1707 0.0 0.0 0.0 0.0 0.0 
848.053 632.371 -1355.94 -136.916 -73.953 -135.209 3.94378 -0.23345 -1.92823 3.94584 -0.110302 -1.93917 3.94841 0.166918 -1.93512 3.94321 -0.140734 -1.9372 -10.9703 -4.14881 -3.5164 -10.9494 -5.51572 -4.4965 -0.0 0.0 -0.0 6.65656 6.7675 12.8578 -19.6912 -25.7424 66.1029 0.582063 -16.0844 0.0822412 38.8147 -0.289053 -4.85635 -0.586636 8.94341 -0.0683858 -0.0 0.0 -0.0 8.24322 22.0717 -15.3349 -22.7339 -5.95244 -71.3985 0.680186 18.621 -0.111514 -51.2893 4.22362 -4.74863 -5.11628 -7.7983 31.6362 0.0 0.0 0.0 29.4381 -20.343 0.0832216 -64.6907 -2.72721 9.02116 9.40079 8.10548 -1.33899 21.2472 -0.0 -0.0 -0.0 0.0 -0.0 24.0364 -20.1976 -4.00986 -11.6016 -0.301176 -1.75195 39.529 8.55364 4.9541 -38.9316 0.0 0.0 0.0 0.0 0.0 
866.165 639.1 -1349.54 -139.805 -74.4666 -138.212 3.80396 -0.233232 -1.9322 3.80603 -0.109833 -1.94312 3.80866 0.172676 -1.93855 3.80344 -0.135589 -1.94149 -11.8462 -3.17923 -3.27927 -11.8242 -3.90487 -4.03749 -0.0 0.0 -0.0 6.15742 8.7417 11.9073 -20.0803 -25.9658 66.1446 0.583474 -16.1214 0.0826328 37.6588 -0.233124 -4.71953 -0.756162 10.4014 -0.529386 -0.0 0.0 -0.0 8.22602 26.6943 -14.8504 -22.7962 -5.68931 -71.1627 0.7509 20.4038 -0.135136 -51.2442 4.21829 -4.74639 -5.44059 -8.92212 33.385 0.0 0.0 0.0 34.1761 -20.3835 2.84546 -62.5656 -2.4833 8.80188 6.8576 8.22212 -0.98486 19.8828 -0.0 -0.0 -0.0 0.0 -0.0 20.774 -19.985 -3.84422 -10.3206 -0.285436 -1.55603 39.0824 9.5204 4.93554 -39.2271 0.0 0.0 0.0 0.0 0.0 
879.591 634.229 -1348.15 -139.625 -74.387 -138.879 3.92238 -0.437788 -1.76677 3.92406 -0.324495 -1.79103 3.93327 -0.0658205 -1.81899 3.92883 -0.352224 -1.78579 -11.7573 -5.03518 -2.03461 -11.7803 -8.223 -3.35457 -0.0 0.0 -0.0 6.04657 7.93705 11.7196 -18.6503 -22.571 66.6711 0.527554 -14.646 0.0677968 41.6442 -0.437532 -5.18633 -0.23567 14.7696 4.58068 -0.0 0.0 -0.0 7.76386 27.4831 -13.7472 -19.1911 -4.72048 -68.9729 0.784547 21.2381 -0.147096 -46.2895 3.64349 -4.47491 -6.37582 -19.8594 31.8242 0.0 0.0 0.0 40.0889 -19.2932 3.67907 -70.5742 -3.44323 9.5798 38.8805 5.20095 -4.75957 10.003 -0.0 -0.0 -0.0 0.0 -0.0 18.0946 -11.473 -5.27308 -4.37098 -0.155126 -0.652715 37.8967 0.347293 4.69302 38.7148 -0.0 -0.0 0.0 0.0 0.0 
